<?xml version="1.0" encoding="UTF-8" standalone="no"?>
<svg
   height="432pt"
   version="1.1"
   viewBox="0 0 604.8 432"
   width="604.8pt"
   id="svg600"
   sodipodi:docname="ploteigen.svg"
   inkscape:version="1.2.1 (9c6d41e410, 2022-07-14)"
   xmlns:inkscape="http://www.inkscape.org/namespaces/inkscape"
   xmlns:sodipodi="http://sodipodi.sourceforge.net/DTD/sodipodi-0.dtd"
   xmlns:xlink="http://www.w3.org/1999/xlink"
   xmlns="http://www.w3.org/2000/svg"
   xmlns:svg="http://www.w3.org/2000/svg"
   xmlns:rdf="http://www.w3.org/1999/02/22-rdf-syntax-ns#"
   xmlns:cc="http://creativecommons.org/ns#"
   xmlns:dc="http://purl.org/dc/elements/1.1/"
   xmlns:ns7="http://www.iki.fi/pav/software/textext/">
  <sodipodi:namedview
     id="namedview602"
     pagecolor="#ffffff"
     bordercolor="#666666"
     borderopacity="1.0"
     inkscape:showpageshadow="2"
     inkscape:pageopacity="0.0"
     inkscape:pagecheckerboard="0"
     inkscape:deskcolor="#d1d1d1"
     inkscape:document-units="pt"
     showgrid="false"
     inkscape:zoom="1.3211806"
     inkscape:cx="403.80552"
     inkscape:cy="288.7569"
     inkscape:window-width="1852"
     inkscape:window-height="1048"
     inkscape:window-x="1920"
     inkscape:window-y="0"
     inkscape:window-maximized="1"
     inkscape:current-layer="svg600" />
  <metadata
     id="metadata339">
    <rdf:RDF>
      <cc:Work>
        <dc:type
           rdf:resource="http://purl.org/dc/dcmitype/StillImage" />
        <dc:date>2022-09-29T15:01:57.024152</dc:date>
        <dc:format>image/svg+xml</dc:format>
        <dc:creator>
          <cc:Agent>
            <dc:title>Matplotlib v3.4.3, https://matplotlib.org/</dc:title>
          </cc:Agent>
        </dc:creator>
      </cc:Work>
    </rdf:RDF>
  </metadata>
  <defs
     id="defs343">
    <style
       type="text/css"
       id="style341">*{stroke-linecap:butt;stroke-linejoin:round;}</style>
    <g
       id="id-364ff766-ac9f-452b-8359-900d963196ed">
      <symbol
         overflow="visible"
         id="id-1bef7380-5a8c-4c7b-a6db-4dce99f4e2c2">
        <path
           style="stroke:none;stroke-width:0"
           d=""
           id="id-4872de82-b1b5-4aed-a419-27142c2668e9" />
      </symbol>
      <symbol
         overflow="visible"
         id="id-c985d242-8ad8-4663-9d19-844443bbdc00">
        <path
           style="stroke:none;stroke-width:0"
           d="m 3.78125,-0.546875 v 0.65625 L 5.25,0 v -0.3125 c -0.6875,0 -0.78125,-0.0625 -0.78125,-0.5625 V -6.921875 L 3.046875,-6.8125 V -6.5 c 0.6875,0 0.765625,0.0625 0.765625,0.5625 v 2.15625 c -0.28125,-0.359375 -0.71875,-0.625 -1.25,-0.625 -1.171875,0 -2.21875,0.984375 -2.21875,2.265625 0,1.265625 0.96875,2.25 2.109375,2.25 0.640625,0 1.078125,-0.34375 1.328125,-0.65625 z m 0,-2.671875 v 2.046875 c 0,0.171875 0,0.1875 -0.109375,0.359375 C 3.375,-0.328125 2.9375,-0.109375 2.5,-0.109375 2.046875,-0.109375 1.6875,-0.375 1.453125,-0.75 1.203125,-1.15625 1.171875,-1.71875 1.171875,-2.140625 1.171875,-2.5 1.1875,-3.09375 1.46875,-3.546875 1.6875,-3.859375 2.0625,-4.1875 2.609375,-4.1875 c 0.34375,0 0.765625,0.15625 1.0625,0.59375 0.109375,0.171875 0.109375,0.1875 0.109375,0.375 z m 0,0"
           id="id-08c27176-3ae1-4538-a86d-0b4773d5930a" />
      </symbol>
      <symbol
         overflow="visible"
         id="id-478135e0-643e-414b-874e-137b2af86660">
        <path
           style="stroke:none;stroke-width:0"
           d="M 1.109375,-2.515625 C 1.171875,-4 2.015625,-4.25 2.359375,-4.25 c 1.015625,0 1.125,1.34375 1.125,1.734375 z m 0,0.21875 h 2.78125 c 0.21875,0 0.25,0 0.25,-0.21875 0,-0.984375 -0.546875,-1.953125 -1.78125,-1.953125 -1.15625,0 -2.078125,1.03125 -2.078125,2.28125 0,1.328125 1.046875,2.296875 2.1875,2.296875 C 3.6875,0.109375 4.140625,-1 4.140625,-1.1875 4.140625,-1.28125 4.0625,-1.3125 4,-1.3125 c -0.078125,0 -0.109375,0.0625 -0.125,0.140625 -0.34375,1.03125 -1.25,1.03125 -1.34375,1.03125 -0.5,0 -0.890625,-0.296875 -1.125,-0.671875 -0.296875,-0.46875 -0.296875,-1.125 -0.296875,-1.484375 z m 0,0"
           id="id-ae102d7e-c78c-4b9a-8b94-b7d5c570d203" />
      </symbol>
      <symbol
         overflow="visible"
         id="id-3b72e0ac-70bd-45fb-91e0-26c2312cc617">
        <path
           style="stroke:none;stroke-width:0"
           d="M 1.09375,-3.421875 V -0.75 c 0,0.4375 -0.109375,0.4375 -0.78125,0.4375 V 0 c 0.359375,-0.015625 0.859375,-0.03125 1.140625,-0.03125 0.25,0 0.765625,0.015625 1.109375,0.03125 v -0.3125 c -0.671875,0 -0.78125,0 -0.78125,-0.4375 V -2.59375 C 1.78125,-3.625 2.5,-4.1875 3.125,-4.1875 c 0.640625,0 0.75,0.53125 0.75,1.109375 V -0.75 c 0,0.4375 -0.109375,0.4375 -0.78125,0.4375 V 0 c 0.34375,-0.015625 0.859375,-0.03125 1.125,-0.03125 0.25,0 0.78125,0.015625 1.109375,0.03125 v -0.3125 c -0.515625,0 -0.765625,0 -0.765625,-0.296875 v -1.90625 c 0,-0.859375 0,-1.15625 -0.3125,-1.515625 -0.140625,-0.171875 -0.46875,-0.375 -1.046875,-0.375 C 2.46875,-4.40625 2,-3.984375 1.71875,-3.359375 V -4.40625 L 0.3125,-4.296875 v 0.3125 c 0.703125,0 0.78125,0.0625 0.78125,0.5625 z m 0,0"
           id="id-afc9375a-2d00-4e13-b5b7-bc6191b5cc56" />
      </symbol>
      <symbol
         overflow="visible"
         id="id-cd257f79-8c11-41b8-bfe1-33385b092e0f">
        <path
           style="stroke:none;stroke-width:0"
           d="m 2.078125,-1.9375 c 0.21875,0.046875 1.03125,0.203125 1.03125,0.921875 0,0.5 -0.34375,0.90625 -1.125,0.90625 -0.84375,0 -1.203125,-0.5625 -1.390625,-1.421875 C 0.5625,-1.65625 0.5625,-1.6875 0.453125,-1.6875 c -0.125,0 -0.125,0.0625 -0.125,0.234375 V -0.125 c 0,0.171875 0,0.234375 0.109375,0.234375 0.046875,0 0.0625,-0.015625 0.25,-0.203125 0.015625,-0.015625 0.015625,-0.03125 0.203125,-0.21875 0.4375,0.40625 0.890625,0.421875 1.09375,0.421875 1.140625,0 1.609375,-0.671875 1.609375,-1.390625 0,-0.515625 -0.296875,-0.828125 -0.421875,-0.9375 C 2.84375,-2.546875 2.453125,-2.625 2.03125,-2.703125 1.46875,-2.8125 0.8125,-2.9375 0.8125,-3.515625 c 0,-0.359375 0.25,-0.765625 1.109375,-0.765625 1.09375,0 1.15625,0.90625 1.171875,1.203125 0,0.09375 0.09375,0.09375 0.109375,0.09375 0.140625,0 0.140625,-0.046875 0.140625,-0.234375 v -1.015625 c 0,-0.15625 0,-0.234375 -0.109375,-0.234375 -0.046875,0 -0.078125,0 -0.203125,0.125 -0.03125,0.03125 -0.125,0.125 -0.171875,0.15625 -0.375,-0.28125 -0.78125,-0.28125 -0.9375,-0.28125 -1.21875,0 -1.59375,0.671875 -1.59375,1.234375 0,0.34375 0.15625,0.625 0.421875,0.84375 0.328125,0.25 0.609375,0.3125 1.328125,0.453125 z m 0,0"
           id="id-d5ca2b35-9581-4f9a-8f42-7683e432660e" />
      </symbol>
      <symbol
         overflow="visible"
         id="id-b39bf226-b18f-485e-9bc3-c75cb2908eb8">
        <path
           style="stroke:none;stroke-width:0"
           d="M 1.765625,-4.40625 0.375,-4.296875 v 0.3125 c 0.640625,0 0.734375,0.0625 0.734375,0.546875 V -0.75 c 0,0.4375 -0.109375,0.4375 -0.78125,0.4375 V 0 C 0.640625,-0.015625 1.1875,-0.03125 1.421875,-0.03125 1.78125,-0.03125 2.125,-0.015625 2.46875,0 v -0.3125 c -0.671875,0 -0.703125,-0.046875 -0.703125,-0.4375 z m 0.03125,-1.734375 c 0,-0.3125 -0.234375,-0.53125 -0.515625,-0.53125 -0.3125,0 -0.53125,0.265625 -0.53125,0.53125 0,0.265625 0.21875,0.53125 0.53125,0.53125 0.28125,0 0.515625,-0.21875 0.515625,-0.53125 z m 0,0"
           id="id-615cf276-6c25-4329-a726-1ae4a5d86c2b" />
      </symbol>
      <symbol
         overflow="visible"
         id="id-f72634a8-8b40-40d6-8ce2-508501ab601e">
        <path
           style="stroke:none;stroke-width:0"
           d="m 1.71875,-3.984375 h 1.4375 v -0.3125 H 1.71875 V -6.125 h -0.25 c 0,0.8125 -0.296875,1.875 -1.28125,1.921875 v 0.21875 h 0.84375 v 2.75 c 0,1.21875 0.9375,1.34375 1.296875,1.34375 0.703125,0 0.984375,-0.703125 0.984375,-1.34375 v -0.5625 h -0.25 V -1.25 c 0,0.734375 -0.296875,1.109375 -0.671875,1.109375 -0.671875,0 -0.671875,-0.90625 -0.671875,-1.078125 z m 0,0"
           id="id-4dcadf88-9e6a-461b-bcbd-beb3f09af976" />
      </symbol>
      <symbol
         overflow="visible"
         id="id-e2af933c-0260-43b5-a16c-e69532552cb5">
        <path
           style="stroke:none;stroke-width:0"
           d="m 4.140625,-3.34375 c 0.25,-0.640625 0.765625,-0.640625 0.921875,-0.640625 v -0.3125 c -0.234375,0.015625 -0.515625,0.03125 -0.75,0.03125 -0.171875,0 -0.640625,-0.015625 -0.859375,-0.03125 v 0.3125 c 0.3125,0 0.46875,0.171875 0.46875,0.421875 0,0.109375 -0.015625,0.125 -0.0625,0.25 L 2.84375,-0.875 1.75,-3.546875 C 1.703125,-3.65625 1.6875,-3.6875 1.6875,-3.734375 c 0,-0.25 0.359375,-0.25 0.5625,-0.25 v -0.3125 c -0.265625,0.015625 -0.921875,0.03125 -1.09375,0.03125 -0.265625,0 -0.671875,-0.015625 -0.96875,-0.03125 v 0.3125 c 0.484375,0 0.671875,0 0.8125,0.34375 L 2.5,0 C 2.4375,0.125 2.296875,0.453125 2.25,0.59375 2.03125,1.140625 1.75,1.828125 1.109375,1.828125 c -0.046875,0 -0.28125,0 -0.46875,-0.1875 0.3125,-0.03125 0.390625,-0.25 0.390625,-0.421875 0,-0.25 -0.1875,-0.40625 -0.421875,-0.40625 -0.203125,0 -0.421875,0.125 -0.421875,0.421875 0,0.453125 0.421875,0.8125 0.921875,0.8125 0.625,0 1.03125,-0.578125 1.265625,-1.140625 z m 0,0"
           id="id-40e8f3b0-5fe3-4351-87d7-67c97f5fce38" />
      </symbol>
    </g>
    <g
       id="id-5766e362-a541-43b4-a82e-26037cd07407">
      <symbol
         overflow="visible"
         id="id-5c737161-a8a9-4fa3-ac76-2a94eef60b03">
        <path
           style="stroke:none;stroke-width:0"
           d=""
           id="id-7c7b069b-4f99-495c-9dbd-be8b8c684c0d" />
      </symbol>
      <symbol
         overflow="visible"
         id="id-8d22e02c-c2f5-4a54-8c13-c48cc915f157">
        <path
           style="stroke:none;stroke-width:0"
           d="M 4.859375,-2.765625 C 4.921875,-2.9375 4.9375,-3.078125 4.9375,-3.34375 c 0,-0.640625 -0.390625,-1.0625 -1.140625,-1.0625 -0.78125,0 -1.296875,0.515625 -1.546875,0.875 -0.046875,-0.578125 -0.46875,-0.875 -0.921875,-0.875 -0.453125,0 -0.640625,0.390625 -0.734375,0.5625 C 0.421875,-3.5 0.296875,-2.90625 0.296875,-2.875 c 0,0.109375 0.09375,0.109375 0.109375,0.109375 0.109375,0 0.109375,-0.015625 0.171875,-0.234375 0.171875,-0.703125 0.375,-1.1875 0.734375,-1.1875 0.15625,0 0.296875,0.078125 0.296875,0.453125 0,0.21875 -0.03125,0.328125 -0.15625,0.84375 L 0.875,-0.59375 c -0.03125,0.15625 -0.09375,0.390625 -0.09375,0.4375 0,0.171875 0.140625,0.265625 0.296875,0.265625 0.125,0 0.296875,-0.078125 0.375,-0.28125 0,-0.015625 0.125,-0.484375 0.1875,-0.734375 l 0.21875,-0.890625 C 1.90625,-2.03125 1.96875,-2.25 2.03125,-2.46875 2.046875,-2.53125 2.125,-2.859375 2.140625,-2.921875 2.15625,-3.015625 2.46875,-3.5625 2.8125,-3.84375 3.03125,-4 3.34375,-4.1875 3.765625,-4.1875 c 0.4375,0 0.546875,0.34375 0.546875,0.703125 0,0.046875 0,0.21875 -0.109375,0.625 l -1.125,4.578125 c -0.03125,0.125 -0.03125,0.140625 -0.03125,0.171875 0,0.140625 0.109375,0.265625 0.265625,0.265625 0.3125,0 0.390625,-0.296875 0.421875,-0.40625 z m 0,0"
           id="id-5a019ab0-3ca6-452d-a673-453ac0dd2285" />
      </symbol>
    </g>
  </defs>
  <g
     id="figure_1"
     transform="translate(19.1525,-30.857)">
    <g
       id="patch_1" />
    <g
       id="axes_1">
      <g
         id="patch_2">
        <path
           d="M 75.6,384.48 H 544.32 V 51.84 H 75.6 Z"
           style="fill:#ffffff"
           id="path348" />
      </g>
      <g
         id="matplotlib.axis_1">
        <g
           id="xtick_1">
          <g
             id="line2d_1">
            <defs
               id="defs352">
              <path
                 d="M 0,0 V 10"
                 id="m00fa61b5b4"
                 style="stroke:#000000;stroke-width:3" />
            </defs>
            <g
               id="g356">
              <use
                 style="stroke:#000000;stroke-width:3"
                 x="96.253891"
                 xlink:href="#m00fa61b5b4"
                 y="384.48001"
                 id="use354" />
            </g>
          </g>
          <g
             id="text_1">
            <!-- 0 -->
            <g
               transform="matrix(0.2,0,0,-0.2,89.89139,413.17687)"
               id="g364">
              <defs
                 id="defs360">
                <path
                   d="m 2034,4250 q -487,0 -733,-480 -245,-479 -245,-1442 0,-959 245,-1439 246,-480 733,-480 491,0 736,480 246,480 246,1439 0,963 -246,1442 -245,480 -736,480 z m 0,500 q 785,0 1199,-621 414,-620 414,-1801 0,-1178 -414,-1799 -414,-620 -1199,-620 -784,0 -1198,620 -414,621 -414,1799 0,1181 414,1801 414,621 1198,621 z"
                   id="DejaVuSans-30"
                   transform="scale(0.015625)" />
              </defs>
              <use
                 xlink:href="#DejaVuSans-30"
                 id="use362" />
            </g>
          </g>
        </g>
        <g
           id="xtick_2">
          <g
             id="line2d_2">
            <g
               id="g370">
              <use
                 style="stroke:#000000;stroke-width:3"
                 x="216.4072"
                 xlink:href="#m00fa61b5b4"
                 y="384.48001"
                 id="use368" />
            </g>
          </g>
          <g
             id="text_2">
            <!-- 0.05 -->
            <g
               transform="matrix(0.2,0,0,-0.2,194.14157,413.17687)"
               id="g385">
              <defs
                 id="defs375">
                <path
                   d="m 684,794 h 660 V 0 H 684 Z"
                   id="DejaVuSans-2e"
                   transform="scale(0.015625)" />
                <path
                   d="M 691,4666 H 3169 V 4134 H 1269 V 2991 q 137,47 274,70 138,23 276,23 781,0 1237,-428 457,-428 457,-1159 Q 3513,744 3044,326 2575,-91 1722,-91 1428,-91 1123,-41 819,9 494,109 v 635 q 281,-153 581,-228 300,-75 634,-75 541,0 856,284 316,284 316,772 0,487 -316,771 -315,285 -856,285 -253,0 -505,-56 -251,-56 -513,-175 z"
                   id="DejaVuSans-35"
                   transform="scale(0.015625)" />
              </defs>
              <use
                 xlink:href="#DejaVuSans-30"
                 id="use377" />
              <use
                 x="63.623047"
                 xlink:href="#DejaVuSans-2e"
                 id="use379" />
              <use
                 x="95.410156"
                 xlink:href="#DejaVuSans-30"
                 id="use381" />
              <use
                 x="159.0332"
                 xlink:href="#DejaVuSans-35"
                 id="use383" />
            </g>
          </g>
        </g>
        <g
           id="xtick_3">
          <g
             id="line2d_3">
            <g
               id="g391">
              <use
                 style="stroke:#000000;stroke-width:3"
                 x="336.56052"
                 xlink:href="#m00fa61b5b4"
                 y="384.48001"
                 id="use389" />
            </g>
          </g>
          <g
             id="text_3">
            <!-- 0.1 -->
            <g
               transform="matrix(0.2,0,0,-0.2,320.65738,413.17687)"
               id="g403">
              <defs
                 id="defs395">
                <path
                   d="M 794,531 H 1825 V 4091 L 703,3866 v 575 l 1116,225 h 631 V 531 H 3481 V 0 H 794 Z"
                   id="DejaVuSans-31"
                   transform="scale(0.015625)" />
              </defs>
              <use
                 xlink:href="#DejaVuSans-30"
                 id="use397" />
              <use
                 x="63.623047"
                 xlink:href="#DejaVuSans-2e"
                 id="use399" />
              <use
                 x="95.410156"
                 xlink:href="#DejaVuSans-31"
                 id="use401" />
            </g>
          </g>
        </g>
        <g
           id="xtick_4">
          <g
             id="line2d_4">
            <g
               id="g409">
              <use
                 style="stroke:#000000;stroke-width:3"
                 x="456.71381"
                 xlink:href="#m00fa61b5b4"
                 y="384.48001"
                 id="use407" />
            </g>
          </g>
          <g
             id="text_4">
            <!-- 0.15 -->
            <g
               transform="matrix(0.2,0,0,-0.2,434.44819,413.17687)"
               id="g420">
              <use
                 xlink:href="#DejaVuSans-30"
                 id="use412" />
              <use
                 x="63.623047"
                 xlink:href="#DejaVuSans-2e"
                 id="use414" />
              <use
                 x="95.410156"
                 xlink:href="#DejaVuSans-31"
                 id="use416" />
              <use
                 x="159.0332"
                 xlink:href="#DejaVuSans-35"
                 id="use418" />
            </g>
          </g>
        </g>
      </g>
      <g
         id="matplotlib.axis_2">
        <g
           id="ytick_1">
          <g
             id="line2d_5">
            <defs
               id="defs426">
              <path
                 d="M 0,0 H -10"
                 id="m915449b824"
                 style="stroke:#000000;stroke-width:3" />
            </defs>
            <g
               id="g430">
              <use
                 style="stroke:#000000;stroke-width:3"
                 x="75.599998"
                 xlink:href="#m915449b824"
                 y="356.9769"
                 id="use428" />
            </g>
          </g>
          <g
             id="text_5">
            <!-- -2 -->
            <g
               transform="matrix(0.2,0,0,-0.2,42.159375,364.57534)"
               id="g441">
              <defs
                 id="defs435">
                <path
                   d="M 313,2009 H 1997 V 1497 H 313 Z"
                   id="DejaVuSans-2d"
                   transform="scale(0.015625)" />
                <path
                   d="M 1228,531 H 3431 V 0 H 469 v 531 q 359,372 979,998 621,627 780,809 303,340 423,576 121,236 121,464 0,372 -261,606 -261,235 -680,235 -297,0 -627,-103 -329,-103 -704,-313 v 638 q 381,153 712,231 332,78 607,78 725,0 1156,-363 431,-362 431,-968 0,-288 -108,-546 -107,-257 -392,-607 -78,-91 -497,-524 Q 1991,1309 1228,531 Z"
                   id="DejaVuSans-32"
                   transform="scale(0.015625)" />
              </defs>
              <use
                 xlink:href="#DejaVuSans-2d"
                 id="use437" />
              <use
                 x="36.083984"
                 xlink:href="#DejaVuSans-32"
                 id="use439" />
            </g>
          </g>
        </g>
        <g
           id="ytick_2">
          <g
             id="line2d_6">
            <g
               id="g447">
              <use
                 style="stroke:#000000;stroke-width:3"
                 x="75.599998"
                 xlink:href="#m915449b824"
                 y="284.14731"
                 id="use445" />
            </g>
          </g>
          <g
             id="text_6">
            <!-- 0 -->
            <g
               transform="matrix(0.2,0,0,-0.2,49.375,291.74574)"
               id="g452">
              <use
                 xlink:href="#DejaVuSans-30"
                 id="use450" />
            </g>
          </g>
        </g>
        <g
           id="ytick_3">
          <g
             id="line2d_7">
            <g
               id="g458">
              <use
                 style="stroke:#000000;stroke-width:3"
                 x="75.599998"
                 xlink:href="#m915449b824"
                 y="211.31769"
                 id="use456" />
            </g>
          </g>
          <g
             id="text_7">
            <!-- 2 -->
            <g
               transform="matrix(0.2,0,0,-0.2,49.375,218.91613)"
               id="g463">
              <use
                 xlink:href="#DejaVuSans-32"
                 id="use461" />
            </g>
          </g>
        </g>
        <g
           id="ytick_4">
          <g
             id="line2d_8">
            <g
               id="g469">
              <use
                 style="stroke:#000000;stroke-width:3"
                 x="75.599998"
                 xlink:href="#m915449b824"
                 y="138.48808"
                 id="use467" />
            </g>
          </g>
          <g
             id="text_8">
            <!-- 4 -->
            <g
               transform="matrix(0.2,0,0,-0.2,49.375,146.08653)"
               id="g477">
              <defs
                 id="defs473">
                <path
                   d="M 2419,4116 825,1625 h 1594 z m -166,550 h 794 V 1625 h 666 V 1100 H 3047 V 0 H 2419 V 1100 H 313 v 609 z"
                   id="DejaVuSans-34"
                   transform="scale(0.015625)" />
              </defs>
              <use
                 xlink:href="#DejaVuSans-34"
                 id="use475" />
            </g>
          </g>
        </g>
        <g
           id="ytick_5">
          <g
             id="line2d_9">
            <g
               id="g483">
              <use
                 style="stroke:#000000;stroke-width:3"
                 x="75.599998"
                 xlink:href="#m915449b824"
                 y="65.658485"
                 id="use481" />
            </g>
          </g>
          <g
             id="text_9">
            <!-- 6 -->
            <g
               transform="matrix(0.2,0,0,-0.2,49.375,73.256922)"
               id="g491">
              <defs
                 id="defs487">
                <path
                   d="m 2113,2584 q -425,0 -674,-291 -248,-290 -248,-796 0,-503 248,-796 249,-292 674,-292 425,0 673,292 248,293 248,796 0,506 -248,796 -248,291 -673,291 z m 1253,1979 v -575 q -238,112 -480,171 -242,60 -480,60 -625,0 -955,-422 -329,-422 -376,-1275 184,272 462,417 279,145 613,145 703,0 1111,-427 408,-426 408,-1160 0,-719 -425,-1154 -425,-434 -1131,-434 -810,0 -1238,620 -428,621 -428,1799 0,1106 525,1764 525,658 1409,658 238,0 480,-47 242,-47 505,-140 z"
                   id="DejaVuSans-36"
                   transform="scale(0.015625)" />
              </defs>
              <use
                 xlink:href="#DejaVuSans-36"
                 id="use489" />
            </g>
          </g>
        </g>
      </g>
      <g
         id="line2d_10">
        <path
           clip-path="url(#pa8bfb05e16)"
           d="m 96.905455,284.1473 75.581515,-0.0972 6.51565,-0.18555 5.21252,-0.37549 3.90939,-0.56767 2.60626,-0.61109 2.60625,-0.88145 2.60626,-1.2335 2.60626,-1.65506 2.60626,-2.10009 2.60626,-2.48485 7.81877,-7.91376 2.60625,-2.13248 2.60626,-1.72762 2.60626,-1.35411 2.60625,-1.0494 2.60626,-0.8199 3.90938,-0.93794 5.21251,-0.93186 7.81877,-1.0833 14.33439,-1.67564 19.54686,-2.30719 10.42498,-1.43757 9.12184,-1.49333 6.51559,-1.2653 6.51559,-1.48555 6.51558,-1.7312 7.81868,-2.12292 2.60623,-0.42457 1.30311,-0.0459 1.30311,0.13529 1.30311,0.39231 1.30311,0.74676 1.30311,1.21792 1.30311,1.81301 1.30311,2.51161 1.30311,3.24868 1.30311,3.90917 3.90932,13.04168 1.3031,3.70734 1.30311,3.04684 1.3031,2.37338 1.30311,1.77356 1.3031,1.28513 1.3031,0.9109 1.30311,0.6358 1.3031,0.43916 2.6062,0.50692 2.6062,0.23521 5.2124,0.15833 14.33403,0.0419 147.24104,6e-4 v 0"
           style="fill:none;stroke:#0000ff;stroke-width:3;stroke-dasharray:3, 4.95;stroke-dashoffset:0"
           id="path496" />
      </g>
      <g
         id="line2d_11">
        <path
           clip-path="url(#pa8bfb05e16)"
           d="m 96.905455,261.65499 106.856625,-0.10787 9.1219,-0.24818 7.81877,-0.43817 7.81876,-0.6859 7.81877,-0.94125 7.81876,-1.19952 6.51563,-1.20339 6.51563,-1.40028 6.51562,-1.61505 6.51563,-1.85599 5.21249,-1.68263 5.21249,-1.88546 5.21249,-2.1212 5.21248,-2.39998 3.90936,-2.01654 3.90936,-2.23592 3.90935,-2.49421 3.90935,-2.80209 3.90935,-3.17379 2.60623,-2.36238 2.60623,-2.59456 2.60623,-2.86338 2.60623,-3.17582 2.60622,-3.53945 2.60623,-3.96115 2.60622,-4.44407 2.60622,-4.98074 2.60622,-5.54125 2.60622,-6.06012 3.90932,-9.74239 5.21242,-13.09471 3.90931,-9.22517 3.9093,-8.50309 3.9093,-7.76839 3.9093,-7.07455 3.90929,-6.43538 3.90928,-5.85154 3.90928,-5.31981 3.90927,-4.83602 3.90926,-4.39604 3.90926,-3.99592 3.90924,-3.63211 3.90925,-3.301308 3.90923,-3.000533 3.90922,-2.72707 3.90922,-2.478445 3.90921,-2.252409 3.90919,-2.046914 5.21225,-2.441604 5.21223,-2.148967 5.21221,-1.891278 5.21219,-1.664379 5.21217,-1.464599 6.51518,-1.585928 6.51514,-1.351389 7.81813,-1.360362 7.81806,-1.122325 9.12099,-1.063468 10.42387,-0.955796 11.72671,-0.81866 13.02945,-0.670382 L 523.01454,66.96 v 0"
           style="fill:none;stroke:#ffa500;stroke-width:3;stroke-dasharray:3, 4.95;stroke-dashoffset:0"
           id="path499" />
      </g>
      <g
         id="line2d_12">
        <path
           clip-path="url(#pa8bfb05e16)"
           d="m 96.905455,284.1473 66.459615,0.0992 6.51565,0.19164 3.90938,0.2623 3.90939,0.49461 2.60626,0.54995 2.60626,0.82618 2.60626,1.22501 1.30313,0.80993 1.30313,0.97056 1.30313,1.15354 1.30313,1.35732 1.30312,1.5775 1.30313,1.80591 2.60626,4.25898 5.21252,9.5469 1.30313,1.97435 1.30313,1.53379 1.30312,0.97586 1.30313,0.3432 1.30313,-0.30821 1.30313,-0.91907 1.30313,-1.43798 1.30313,-1.83 2.60625,-4.27537 2.60626,-4.28767 2.60626,-3.68737 1.30313,-1.54034 1.30312,-1.33458 1.30313,-1.14061 1.30313,-0.96454 1.30313,-0.80915 2.60625,-1.23561 2.60626,-0.84996 2.60625,-0.58385 3.90939,-0.55626 3.90938,-0.3245 6.51563,-0.2642 7.81876,-0.0676 9.12187,0.14068 9.12187,0.3504 7.81873,0.49107 7.81873,0.7186 6.5156,0.82569 6.51559,1.07636 11.72805,2.15675 2.60623,0.0752 1.30311,-0.17715 1.30311,-0.41045 1.30312,-0.74692 1.30311,-1.22868 1.30311,-1.91344 1.30312,-2.87766 1.30311,-4.21685 1.30311,-6.0375 1.30311,-8.42978 1.30311,-11.40458 1.30311,-14.77745 1.30311,-18.00602 2.60622,-39.61582 1.30311,-15.30463 1.3031,-7.34595 1.30311,2.52805 1.30311,11.447 1.3031,17.10416 2.60621,36.55571 1.30311,14.85817 1.3031,11.62916 1.3031,8.66853 1.30311,6.25153 1.3031,4.40934 1.3031,3.06426 1.3031,2.10878 1.3031,1.44204 1.3031,0.98208 1.3031,0.66712 1.3031,0.45247 2.6062,0.51426 2.60619,0.23583 5.21238,0.15773 14.33398,0.0415 139.42252,5.9e-4 v 0"
           style="fill:none;stroke:#000000;stroke-width:3;stroke-linecap:square"
           id="path502" />
      </g>
      <g
         id="line2d_13">
        <path
           clip-path="url(#pa8bfb05e16)"
           d="m 96.905455,284.37566 93.825335,0.11209 9.1219,0.20328 6.51564,0.35352 6.51565,0.57553 10.42502,1.20215 19.54691,2.50332 11.72814,1.70055 9.12187,1.55735 6.51563,1.31146 6.51561,1.54733 5.21249,1.46525 5.21249,1.73258 3.90936,1.52398 3.90936,1.76745 3.90936,2.07187 2.60623,1.58909 2.60624,1.78968 2.60623,2.02688 2.60624,2.30878 2.60623,2.64514 2.60623,3.04762 2.60623,3.52913 2.60622,4.10228 2.60623,4.77447 2.60623,5.53656 2.60622,6.33745 2.60622,7.03445 3.90933,10.82724 1.30311,3.19879 1.30311,2.71417 1.3031,2.06801 1.30311,1.31035 1.30311,0.51654 1.3031,-0.23491 1.30311,-0.88442 1.3031,-1.40224 1.30311,-1.78575 2.6062,-4.26716 9.12171,-16.02648 3.9093,-6.12812 3.90929,-5.54262 3.90928,-4.99056 3.90928,-4.4864 3.90927,-4.03087 3.90926,-3.62077 3.90926,-3.25208 3.90924,-2.92075 3.90925,-2.62306 3.90923,-2.35561 3.90922,-2.11536 3.90922,-1.89953 5.21227,-2.23458 5.21226,-1.93564 5.21224,-1.67657 5.21222,-1.45206 6.51524,-1.54463 6.51522,-1.29028 6.51518,-1.07768 7.81817,-1.06133 9.12112,-0.98014 9.12104,-0.76125 11.72692,-0.73425 13.02973,-0.57905 15.63537,-0.46745 11.72629,-0.2386 v 0"
           style="fill:none;stroke:#ff0000;stroke-width:3;stroke-dasharray:19.2, 4.8, 3, 4.8;stroke-dashoffset:0"
           id="path505" />
      </g>
      <g
         id="patch_3">
        <path
           d="M 75.6,384.48 V 51.84"
           style="fill:none;stroke:#000000;stroke-width:4;stroke-linecap:square;stroke-linejoin:miter"
           id="path508" />
      </g>
      <g
         id="patch_4">
        <path
           d="M 544.32,384.48 V 51.84"
           style="fill:none;stroke:#000000;stroke-width:4;stroke-linecap:square;stroke-linejoin:miter"
           id="path511" />
      </g>
      <g
         id="patch_5">
        <path
           d="M 75.6,384.48 H 544.32"
           style="fill:none;stroke:#000000;stroke-width:4;stroke-linecap:square;stroke-linejoin:miter"
           id="path514" />
      </g>
      <g
         id="patch_6">
        <path
           d="M 75.6,51.84 H 544.32"
           style="fill:none;stroke:#000000;stroke-width:4;stroke-linecap:square;stroke-linejoin:miter"
           id="path517" />
      </g>
      <g
         id="legend_1">
        <g
           id="patch_7">
          <path
             d="M 89.6,189.7525 H 225 q 4,0 4,-4 V 65.84 q 0,-4 -4,-4 H 89.6 q -4,0 -4,4 v 119.9125 q 0,4 4,4 z"
             style="opacity:0.8;fill:#ffffff;stroke:#cccccc;stroke-linejoin:miter"
             id="path520" />
        </g>
        <g
           id="line2d_14">
          <path
             d="m 93.6,78.036875 h 40"
             style="fill:none;stroke:#0000ff;stroke-width:3;stroke-dasharray:3, 4.95;stroke-dashoffset:0"
             id="path523" />
        </g>
        <g
           id="line2d_15" />
        <g
           id="text_10">
          <!-- $n_0$ -->
          <g
             transform="matrix(0.2,0,0,-0.2,149.6,85.036875)"
             id="g534">
            <defs
               id="defs528">
              <path
                 d="M 3566,2113 3156,0 h -578 l 410,2091 q 28,147 43,259 16,113 16,178 0,263 -166,409 -165,147 -462,147 -463,0 -797,-308 -334,-307 -438,-835 L 800,0 H 225 l 678,3500 h 575 l -115,-550 q 240,303 577,468 338,166 710,166 463,0 717,-250 255,-250 255,-703 0,-112 -14,-240 -14,-128 -42,-278 z"
                 id="DejaVuSans-Oblique-6e"
                 transform="scale(0.015625)" />
            </defs>
            <use
               xlink:href="#DejaVuSans-Oblique-6e"
               id="use530" />
            <use
               transform="matrix(0.7,0,0,0.7,63.378906,-16.40625)"
               xlink:href="#DejaVuSans-30"
               id="use532" />
          </g>
        </g>
        <g
           id="line2d_16">
          <path
             d="m 93.6,107.39312 h 40"
             style="fill:none;stroke:#ffa500;stroke-width:3;stroke-dasharray:3, 4.95;stroke-dashoffset:0"
             id="path537" />
        </g>
        <g
           id="line2d_17" />
        <g
           id="text_11">
          <!-- $u_0$ -->
          <g
             transform="matrix(0.2,0,0,-0.2,149.6,114.39312)"
             id="g548">
            <defs
               id="defs542">
              <path
                 d="m 428,1388 410,2112 h 578 L 1006,1409 q -31,-153 -45,-262 -14,-109 -14,-181 0,-266 162,-412 163,-145 460,-145 462,0 799,312 338,313 441,842 l 385,1937 h 575 L 3091,0 h -575 l 115,550 Q 2388,244 2052,76 1716,-91 1338,-91 878,-91 622,161 366,413 366,863 q 0,93 15,234 16,141 47,291 z"
                 id="DejaVuSans-Oblique-75"
                 transform="scale(0.015625)" />
            </defs>
            <use
               transform="translate(0,0.3125)"
               xlink:href="#DejaVuSans-Oblique-75"
               id="use544" />
            <use
               transform="matrix(0.7,0,0,0.7,63.378906,-16.09375)"
               xlink:href="#DejaVuSans-30"
               id="use546" />
          </g>
        </g>
        <g
           id="line2d_18">
          <path
             d="m 93.6,138.99312 h 40"
             style="fill:none;stroke:#000000;stroke-width:3;stroke-linecap:square"
             id="path551" />
        </g>
        <g
           id="line2d_19" />
        <g
           id="text_12">
          <!-- $n_1\cdot 10^{6}$ -->
          <g
             transform="matrix(0.2,0,0,-0.2,149.6,145.99312)"
             id="g570">
            <defs
               id="defs556">
              <path
                 d="m 684,2619 h 660 V 1825 H 684 Z"
                 id="DejaVuSans-22c5"
                 transform="scale(0.015625)" />
            </defs>
            <use
               transform="translate(0,0.765625)"
               xlink:href="#DejaVuSans-Oblique-6e"
               id="use558" />
            <use
               transform="matrix(0.7,0,0,0.7,63.378906,-15.640625)"
               xlink:href="#DejaVuSans-31"
               id="use560" />
            <use
               transform="translate(130.13184,0.765625)"
               xlink:href="#DejaVuSans-22c5"
               id="use562" />
            <use
               transform="translate(181.40137,0.765625)"
               xlink:href="#DejaVuSans-31"
               id="use564" />
            <use
               transform="translate(245.02441,0.765625)"
               xlink:href="#DejaVuSans-30"
               id="use566" />
            <use
               transform="matrix(0.7,0,0,0.7,309.60449,39.046875)"
               xlink:href="#DejaVuSans-36"
               id="use568" />
          </g>
        </g>
        <g
           id="line2d_20">
          <path
             d="m 93.6,170.59312 h 40"
             style="fill:none;stroke:#ff0000;stroke-width:3;stroke-dasharray:19.2, 4.8, 3, 4.8;stroke-dashoffset:0"
             id="path573" />
        </g>
        <g
           id="line2d_21" />
        <g
           id="text_13">
          <!-- $u_1\cdot 10^{6}$ -->
          <g
             transform="matrix(0.2,0,0,-0.2,149.6,177.59312)"
             id="g589">
            <use
               transform="translate(0,0.765625)"
               xlink:href="#DejaVuSans-Oblique-75"
               id="use577" />
            <use
               transform="matrix(0.7,0,0,0.7,63.378906,-15.640625)"
               xlink:href="#DejaVuSans-31"
               id="use579" />
            <use
               transform="translate(130.13184,0.765625)"
               xlink:href="#DejaVuSans-22c5"
               id="use581" />
            <use
               transform="translate(181.40137,0.765625)"
               xlink:href="#DejaVuSans-31"
               id="use583" />
            <use
               transform="translate(245.02441,0.765625)"
               xlink:href="#DejaVuSans-30"
               id="use585" />
            <use
               transform="matrix(0.7,0,0,0.7,309.60449,39.046875)"
               xlink:href="#DejaVuSans-36"
               id="use587" />
          </g>
        </g>
      </g>
    </g>
  </g>
  <defs
     id="defs598">
    <clipPath
       id="pa8bfb05e16">
      <rect
         height="332.64"
         width="468.72"
         x="75.6"
         y="51.84"
         id="rect595" />
    </clipPath>
  </defs>
  <g
     ns7:version="1.8.1"
     ns7:texconverter="pdflatex"
     ns7:pdfconverter="inkscape"
     ns7:text="density"
     ns7:preamble="C:\Users\sim07\AppData\Roaming\inkscape\extensions\textext\default_packages.tex"
     ns7:scale="4.0"
     ns7:alignment="middle center"
     ns7:stroke-to-path="0"
     transform="matrix(0,-4,4,0,21.6965,241.637)"
     ns7:jacobian_sqrt="4.0"
     id="g794"
     style="stroke-linecap:butt;stroke-linejoin:round">
    <defs
       id="id-41d36318-0fb4-45b0-8f0c-37d08ffbe81e">
      <g
         id="g911">
        <symbol
           overflow="visible"
           id="symbol881">
          <path
             style="stroke:none;stroke-width:0"
             d=""
             id="path879" />
        </symbol>
        <symbol
           overflow="visible"
           id="symbol885">
          <path
             style="stroke:none;stroke-width:0"
             d="m 3.78125,-0.546875 v 0.65625 L 5.25,0 v -0.3125 c -0.6875,0 -0.78125,-0.0625 -0.78125,-0.5625 V -6.921875 L 3.046875,-6.8125 V -6.5 c 0.6875,0 0.765625,0.0625 0.765625,0.5625 v 2.15625 c -0.28125,-0.359375 -0.71875,-0.625 -1.25,-0.625 -1.171875,0 -2.21875,0.984375 -2.21875,2.265625 0,1.265625 0.96875,2.25 2.109375,2.25 0.640625,0 1.078125,-0.34375 1.328125,-0.65625 z m 0,-2.671875 v 2.046875 c 0,0.171875 0,0.1875 -0.109375,0.359375 C 3.375,-0.328125 2.9375,-0.109375 2.5,-0.109375 2.046875,-0.109375 1.6875,-0.375 1.453125,-0.75 1.203125,-1.15625 1.171875,-1.71875 1.171875,-2.140625 1.171875,-2.5 1.1875,-3.09375 1.46875,-3.546875 1.6875,-3.859375 2.0625,-4.1875 2.609375,-4.1875 c 0.34375,0 0.765625,0.15625 1.0625,0.59375 0.109375,0.171875 0.109375,0.1875 0.109375,0.375 z m 0,0"
             id="path883" />
        </symbol>
        <symbol
           overflow="visible"
           id="symbol889">
          <path
             style="stroke:none;stroke-width:0"
             d="M 1.109375,-2.515625 C 1.171875,-4 2.015625,-4.25 2.359375,-4.25 c 1.015625,0 1.125,1.34375 1.125,1.734375 z m 0,0.21875 h 2.78125 c 0.21875,0 0.25,0 0.25,-0.21875 0,-0.984375 -0.546875,-1.953125 -1.78125,-1.953125 -1.15625,0 -2.078125,1.03125 -2.078125,2.28125 0,1.328125 1.046875,2.296875 2.1875,2.296875 C 3.6875,0.109375 4.140625,-1 4.140625,-1.1875 4.140625,-1.28125 4.0625,-1.3125 4,-1.3125 c -0.078125,0 -0.109375,0.0625 -0.125,0.140625 -0.34375,1.03125 -1.25,1.03125 -1.34375,1.03125 -0.5,0 -0.890625,-0.296875 -1.125,-0.671875 -0.296875,-0.46875 -0.296875,-1.125 -0.296875,-1.484375 z m 0,0"
             id="path887" />
        </symbol>
        <symbol
           overflow="visible"
           id="symbol893">
          <path
             style="stroke:none;stroke-width:0"
             d="M 1.09375,-3.421875 V -0.75 c 0,0.4375 -0.109375,0.4375 -0.78125,0.4375 V 0 c 0.359375,-0.015625 0.859375,-0.03125 1.140625,-0.03125 0.25,0 0.765625,0.015625 1.109375,0.03125 v -0.3125 c -0.671875,0 -0.78125,0 -0.78125,-0.4375 V -2.59375 C 1.78125,-3.625 2.5,-4.1875 3.125,-4.1875 c 0.640625,0 0.75,0.53125 0.75,1.109375 V -0.75 c 0,0.4375 -0.109375,0.4375 -0.78125,0.4375 V 0 c 0.34375,-0.015625 0.859375,-0.03125 1.125,-0.03125 0.25,0 0.78125,0.015625 1.109375,0.03125 v -0.3125 c -0.515625,0 -0.765625,0 -0.765625,-0.296875 v -1.90625 c 0,-0.859375 0,-1.15625 -0.3125,-1.515625 -0.140625,-0.171875 -0.46875,-0.375 -1.046875,-0.375 C 2.46875,-4.40625 2,-3.984375 1.71875,-3.359375 V -4.40625 L 0.3125,-4.296875 v 0.3125 c 0.703125,0 0.78125,0.0625 0.78125,0.5625 z m 0,0"
             id="path891" />
        </symbol>
        <symbol
           overflow="visible"
           id="symbol897">
          <path
             style="stroke:none;stroke-width:0"
             d="m 2.078125,-1.9375 c 0.21875,0.046875 1.03125,0.203125 1.03125,0.921875 0,0.5 -0.34375,0.90625 -1.125,0.90625 -0.84375,0 -1.203125,-0.5625 -1.390625,-1.421875 C 0.5625,-1.65625 0.5625,-1.6875 0.453125,-1.6875 c -0.125,0 -0.125,0.0625 -0.125,0.234375 V -0.125 c 0,0.171875 0,0.234375 0.109375,0.234375 0.046875,0 0.0625,-0.015625 0.25,-0.203125 0.015625,-0.015625 0.015625,-0.03125 0.203125,-0.21875 0.4375,0.40625 0.890625,0.421875 1.09375,0.421875 1.140625,0 1.609375,-0.671875 1.609375,-1.390625 0,-0.515625 -0.296875,-0.828125 -0.421875,-0.9375 C 2.84375,-2.546875 2.453125,-2.625 2.03125,-2.703125 1.46875,-2.8125 0.8125,-2.9375 0.8125,-3.515625 c 0,-0.359375 0.25,-0.765625 1.109375,-0.765625 1.09375,0 1.15625,0.90625 1.171875,1.203125 0,0.09375 0.09375,0.09375 0.109375,0.09375 0.140625,0 0.140625,-0.046875 0.140625,-0.234375 v -1.015625 c 0,-0.15625 0,-0.234375 -0.109375,-0.234375 -0.046875,0 -0.078125,0 -0.203125,0.125 -0.03125,0.03125 -0.125,0.125 -0.171875,0.15625 -0.375,-0.28125 -0.78125,-0.28125 -0.9375,-0.28125 -1.21875,0 -1.59375,0.671875 -1.59375,1.234375 0,0.34375 0.15625,0.625 0.421875,0.84375 0.328125,0.25 0.609375,0.3125 1.328125,0.453125 z m 0,0"
             id="path895" />
        </symbol>
        <symbol
           overflow="visible"
           id="symbol901">
          <path
             style="stroke:none;stroke-width:0"
             d="M 1.765625,-4.40625 0.375,-4.296875 v 0.3125 c 0.640625,0 0.734375,0.0625 0.734375,0.546875 V -0.75 c 0,0.4375 -0.109375,0.4375 -0.78125,0.4375 V 0 C 0.640625,-0.015625 1.1875,-0.03125 1.421875,-0.03125 1.78125,-0.03125 2.125,-0.015625 2.46875,0 v -0.3125 c -0.671875,0 -0.703125,-0.046875 -0.703125,-0.4375 z m 0.03125,-1.734375 c 0,-0.3125 -0.234375,-0.53125 -0.515625,-0.53125 -0.3125,0 -0.53125,0.265625 -0.53125,0.53125 0,0.265625 0.21875,0.53125 0.53125,0.53125 0.28125,0 0.515625,-0.21875 0.515625,-0.53125 z m 0,0"
             id="path899" />
        </symbol>
        <symbol
           overflow="visible"
           id="symbol905">
          <path
             style="stroke:none;stroke-width:0"
             d="m 1.71875,-3.984375 h 1.4375 v -0.3125 H 1.71875 V -6.125 h -0.25 c 0,0.8125 -0.296875,1.875 -1.28125,1.921875 v 0.21875 h 0.84375 v 2.75 c 0,1.21875 0.9375,1.34375 1.296875,1.34375 0.703125,0 0.984375,-0.703125 0.984375,-1.34375 v -0.5625 h -0.25 V -1.25 c 0,0.734375 -0.296875,1.109375 -0.671875,1.109375 -0.671875,0 -0.671875,-0.90625 -0.671875,-1.078125 z m 0,0"
             id="path903" />
        </symbol>
        <symbol
           overflow="visible"
           id="symbol909">
          <path
             style="stroke:none;stroke-width:0"
             d="m 4.140625,-3.34375 c 0.25,-0.640625 0.765625,-0.640625 0.921875,-0.640625 v -0.3125 c -0.234375,0.015625 -0.515625,0.03125 -0.75,0.03125 -0.171875,0 -0.640625,-0.015625 -0.859375,-0.03125 v 0.3125 c 0.3125,0 0.46875,0.171875 0.46875,0.421875 0,0.109375 -0.015625,0.125 -0.0625,0.25 L 2.84375,-0.875 1.75,-3.546875 C 1.703125,-3.65625 1.6875,-3.6875 1.6875,-3.734375 c 0,-0.25 0.359375,-0.25 0.5625,-0.25 v -0.3125 c -0.265625,0.015625 -0.921875,0.03125 -1.09375,0.03125 -0.265625,0 -0.671875,-0.015625 -0.96875,-0.03125 v 0.3125 c 0.484375,0 0.671875,0 0.8125,0.34375 L 2.5,0 C 2.4375,0.125 2.296875,0.453125 2.25,0.59375 2.03125,1.140625 1.75,1.828125 1.109375,1.828125 c -0.046875,0 -0.28125,0 -0.46875,-0.1875 0.3125,-0.03125 0.390625,-0.25 0.390625,-0.421875 0,-0.25 -0.1875,-0.40625 -0.421875,-0.40625 -0.203125,0 -0.421875,0.125 -0.421875,0.421875 0,0.453125 0.421875,0.8125 0.921875,0.8125 0.625,0 1.03125,-0.578125 1.265625,-1.140625 z m 0,0"
             id="path907" />
        </symbol>
      </g>
    </defs>
    <g
       id="id-98b87f29-fb73-4980-81b1-31f5df2cd09a"
       transform="translate(-149.056,-127.843)"
       style="stroke-linecap:butt;stroke-linejoin:round">
      <g
         style="fill:#000000;fill-opacity:1;stroke-linecap:butt;stroke-linejoin:round"
         id="id-a2d15d16-87ea-44b8-a96f-63a287cab5bb">
        <g
           transform="translate(148.712,134.765)"
           id="g771"
           style="stroke-linecap:butt;stroke-linejoin:round">
          <path
             style="stroke:none;stroke-width:0;stroke-linecap:butt;stroke-linejoin:round"
             d="m 3.78125,-0.546875 v 0.65625 L 5.25,0 v -0.3125 c -0.6875,0 -0.78125,-0.0625 -0.78125,-0.5625 V -6.921875 L 3.046875,-6.8125 V -6.5 c 0.6875,0 0.765625,0.0625 0.765625,0.5625 v 2.15625 c -0.28125,-0.359375 -0.71875,-0.625 -1.25,-0.625 -1.171875,0 -2.21875,0.984375 -2.21875,2.265625 0,1.265625 0.96875,2.25 2.109375,2.25 0.640625,0 1.078125,-0.34375 1.328125,-0.65625 z m 0,-2.671875 v 2.046875 c 0,0.171875 0,0.1875 -0.109375,0.359375 C 3.375,-0.328125 2.9375,-0.109375 2.5,-0.109375 2.046875,-0.109375 1.6875,-0.375 1.453125,-0.75 1.203125,-1.15625 1.171875,-1.71875 1.171875,-2.140625 1.171875,-2.5 1.1875,-3.09375 1.46875,-3.546875 1.6875,-3.859375 2.0625,-4.1875 2.609375,-4.1875 c 0.34375,0 0.765625,0.15625 1.0625,0.59375 0.109375,0.171875 0.109375,0.1875 0.109375,0.375 z m 0,0"
             id="id-5801f36c-4c6d-4a19-ada6-8007b8bb364b" />
        </g>
        <g
           transform="translate(154.247,134.765)"
           id="g774"
           style="stroke-linecap:butt;stroke-linejoin:round">
          <path
             style="stroke:none;stroke-width:0;stroke-linecap:butt;stroke-linejoin:round"
             d="M 1.109375,-2.515625 C 1.171875,-4 2.015625,-4.25 2.359375,-4.25 c 1.015625,0 1.125,1.34375 1.125,1.734375 z m 0,0.21875 h 2.78125 c 0.21875,0 0.25,0 0.25,-0.21875 0,-0.984375 -0.546875,-1.953125 -1.78125,-1.953125 -1.15625,0 -2.078125,1.03125 -2.078125,2.28125 0,1.328125 1.046875,2.296875 2.1875,2.296875 C 3.6875,0.109375 4.140625,-1 4.140625,-1.1875 4.140625,-1.28125 4.0625,-1.3125 4,-1.3125 c -0.078125,0 -0.109375,0.0625 -0.125,0.140625 -0.34375,1.03125 -1.25,1.03125 -1.34375,1.03125 -0.5,0 -0.890625,-0.296875 -1.125,-0.671875 -0.296875,-0.46875 -0.296875,-1.125 -0.296875,-1.484375 z m 0,0"
             id="id-5cfab451-5244-4a12-a75b-3774ef3d7f85" />
        </g>
        <g
           transform="translate(158.675,134.765)"
           id="g777"
           style="stroke-linecap:butt;stroke-linejoin:round">
          <path
             style="stroke:none;stroke-width:0;stroke-linecap:butt;stroke-linejoin:round"
             d="M 1.09375,-3.421875 V -0.75 c 0,0.4375 -0.109375,0.4375 -0.78125,0.4375 V 0 c 0.359375,-0.015625 0.859375,-0.03125 1.140625,-0.03125 0.25,0 0.765625,0.015625 1.109375,0.03125 v -0.3125 c -0.671875,0 -0.78125,0 -0.78125,-0.4375 V -2.59375 C 1.78125,-3.625 2.5,-4.1875 3.125,-4.1875 c 0.640625,0 0.75,0.53125 0.75,1.109375 V -0.75 c 0,0.4375 -0.109375,0.4375 -0.78125,0.4375 V 0 c 0.34375,-0.015625 0.859375,-0.03125 1.125,-0.03125 0.25,0 0.78125,0.015625 1.109375,0.03125 v -0.3125 c -0.515625,0 -0.765625,0 -0.765625,-0.296875 v -1.90625 c 0,-0.859375 0,-1.15625 -0.3125,-1.515625 -0.140625,-0.171875 -0.46875,-0.375 -1.046875,-0.375 C 2.46875,-4.40625 2,-3.984375 1.71875,-3.359375 V -4.40625 L 0.3125,-4.296875 v 0.3125 c 0.703125,0 0.78125,0.0625 0.78125,0.5625 z m 0,0"
             id="id-f8b9638c-c6c6-4993-ab73-ebe76a4917cc" />
        </g>
        <g
           transform="translate(164.21,134.765)"
           id="g780"
           style="stroke-linecap:butt;stroke-linejoin:round">
          <path
             style="stroke:none;stroke-width:0;stroke-linecap:butt;stroke-linejoin:round"
             d="m 2.078125,-1.9375 c 0.21875,0.046875 1.03125,0.203125 1.03125,0.921875 0,0.5 -0.34375,0.90625 -1.125,0.90625 -0.84375,0 -1.203125,-0.5625 -1.390625,-1.421875 C 0.5625,-1.65625 0.5625,-1.6875 0.453125,-1.6875 c -0.125,0 -0.125,0.0625 -0.125,0.234375 V -0.125 c 0,0.171875 0,0.234375 0.109375,0.234375 0.046875,0 0.0625,-0.015625 0.25,-0.203125 0.015625,-0.015625 0.015625,-0.03125 0.203125,-0.21875 0.4375,0.40625 0.890625,0.421875 1.09375,0.421875 1.140625,0 1.609375,-0.671875 1.609375,-1.390625 0,-0.515625 -0.296875,-0.828125 -0.421875,-0.9375 C 2.84375,-2.546875 2.453125,-2.625 2.03125,-2.703125 1.46875,-2.8125 0.8125,-2.9375 0.8125,-3.515625 c 0,-0.359375 0.25,-0.765625 1.109375,-0.765625 1.09375,0 1.15625,0.90625 1.171875,1.203125 0,0.09375 0.09375,0.09375 0.109375,0.09375 0.140625,0 0.140625,-0.046875 0.140625,-0.234375 v -1.015625 c 0,-0.15625 0,-0.234375 -0.109375,-0.234375 -0.046875,0 -0.078125,0 -0.203125,0.125 -0.03125,0.03125 -0.125,0.125 -0.171875,0.15625 -0.375,-0.28125 -0.78125,-0.28125 -0.9375,-0.28125 -1.21875,0 -1.59375,0.671875 -1.59375,1.234375 0,0.34375 0.15625,0.625 0.421875,0.84375 0.328125,0.25 0.609375,0.3125 1.328125,0.453125 z m 0,0"
             id="id-2a8788f1-a52d-4d07-9642-35fa312faea6" />
        </g>
        <g
           transform="translate(168.139,134.765)"
           id="g783"
           style="stroke-linecap:butt;stroke-linejoin:round">
          <path
             style="stroke:none;stroke-width:0;stroke-linecap:butt;stroke-linejoin:round"
             d="M 1.765625,-4.40625 0.375,-4.296875 v 0.3125 c 0.640625,0 0.734375,0.0625 0.734375,0.546875 V -0.75 c 0,0.4375 -0.109375,0.4375 -0.78125,0.4375 V 0 C 0.640625,-0.015625 1.1875,-0.03125 1.421875,-0.03125 1.78125,-0.03125 2.125,-0.015625 2.46875,0 v -0.3125 c -0.671875,0 -0.703125,-0.046875 -0.703125,-0.4375 z m 0.03125,-1.734375 c 0,-0.3125 -0.234375,-0.53125 -0.515625,-0.53125 -0.3125,0 -0.53125,0.265625 -0.53125,0.53125 0,0.265625 0.21875,0.53125 0.53125,0.53125 0.28125,0 0.515625,-0.21875 0.515625,-0.53125 z m 0,0"
             id="id-32def78a-0724-4e3d-ade6-03edb610ce0d" />
        </g>
        <g
           transform="translate(170.907,134.765)"
           id="g786"
           style="stroke-linecap:butt;stroke-linejoin:round">
          <path
             style="stroke:none;stroke-width:0;stroke-linecap:butt;stroke-linejoin:round"
             d="m 1.71875,-3.984375 h 1.4375 v -0.3125 H 1.71875 V -6.125 h -0.25 c 0,0.8125 -0.296875,1.875 -1.28125,1.921875 v 0.21875 h 0.84375 v 2.75 c 0,1.21875 0.9375,1.34375 1.296875,1.34375 0.703125,0 0.984375,-0.703125 0.984375,-1.34375 v -0.5625 h -0.25 V -1.25 c 0,0.734375 -0.296875,1.109375 -0.671875,1.109375 -0.671875,0 -0.671875,-0.90625 -0.671875,-1.078125 z m 0,0"
             id="id-4a5af811-bfa3-46dc-92f5-42998cd9bfaa" />
        </g>
      </g>
      <g
         style="fill:#000000;fill-opacity:1;stroke-linecap:butt;stroke-linejoin:round"
         id="id-0090abcb-650b-44e5-bee6-d1dd4f848de4">
        <g
           transform="translate(174.502,134.765)"
           id="g790"
           style="stroke-linecap:butt;stroke-linejoin:round">
          <path
             style="stroke:none;stroke-width:0;stroke-linecap:butt;stroke-linejoin:round"
             d="m 4.140625,-3.34375 c 0.25,-0.640625 0.765625,-0.640625 0.921875,-0.640625 v -0.3125 c -0.234375,0.015625 -0.515625,0.03125 -0.75,0.03125 -0.171875,0 -0.640625,-0.015625 -0.859375,-0.03125 v 0.3125 c 0.3125,0 0.46875,0.171875 0.46875,0.421875 0,0.109375 -0.015625,0.125 -0.0625,0.25 L 2.84375,-0.875 1.75,-3.546875 C 1.703125,-3.65625 1.6875,-3.6875 1.6875,-3.734375 c 0,-0.25 0.359375,-0.25 0.5625,-0.25 v -0.3125 c -0.265625,0.015625 -0.921875,0.03125 -1.09375,0.03125 -0.265625,0 -0.671875,-0.015625 -0.96875,-0.03125 v 0.3125 c 0.484375,0 0.671875,0 0.8125,0.34375 L 2.5,0 C 2.4375,0.125 2.296875,0.453125 2.25,0.59375 2.03125,1.140625 1.75,1.828125 1.109375,1.828125 c -0.046875,0 -0.28125,0 -0.46875,-0.1875 0.3125,-0.03125 0.390625,-0.25 0.390625,-0.421875 0,-0.25 -0.1875,-0.40625 -0.421875,-0.40625 -0.203125,0 -0.421875,0.125 -0.421875,0.421875 0,0.453125 0.421875,0.8125 0.921875,0.8125 0.625,0 1.03125,-0.578125 1.265625,-1.140625 z m 0,0"
             id="id-89f5069d-f38a-45a6-bb7e-47da473239c4" />
        </g>
      </g>
    </g>
  </g>
  <g
     ns7:version="1.8.1"
     ns7:texconverter="pdflatex"
     ns7:pdfconverter="inkscape"
     ns7:text="$\\eta$"
     ns7:preamble="C:\Users\sim07\AppData\Roaming\inkscape\extensions\textext\default_packages.tex"
     ns7:scale="4.0"
     ns7:alignment="middle center"
     ns7:stroke-to-path="0"
     transform="matrix(4,0,0,4,323.4975,386.688)"
     ns7:jacobian_sqrt="4.0"
     id="g1305"
     style="stroke-linecap:butt;stroke-linejoin:round">
    <defs
       id="id-ad5c4405-d4f4-464f-b67e-4123121975f5">
      <g
         id="g1061">
        <symbol
           overflow="visible"
           id="symbol1055">
          <path
             style="stroke:none;stroke-width:0"
             d=""
             id="path1053" />
        </symbol>
        <symbol
           overflow="visible"
           id="symbol1059">
          <path
             style="stroke:none;stroke-width:0"
             d="M 4.859375,-2.765625 C 4.921875,-2.9375 4.9375,-3.078125 4.9375,-3.34375 c 0,-0.640625 -0.390625,-1.0625 -1.140625,-1.0625 -0.78125,0 -1.296875,0.515625 -1.546875,0.875 -0.046875,-0.578125 -0.46875,-0.875 -0.921875,-0.875 -0.453125,0 -0.640625,0.390625 -0.734375,0.5625 C 0.421875,-3.5 0.296875,-2.90625 0.296875,-2.875 c 0,0.109375 0.09375,0.109375 0.109375,0.109375 0.109375,0 0.109375,-0.015625 0.171875,-0.234375 0.171875,-0.703125 0.375,-1.1875 0.734375,-1.1875 0.15625,0 0.296875,0.078125 0.296875,0.453125 0,0.21875 -0.03125,0.328125 -0.15625,0.84375 L 0.875,-0.59375 c -0.03125,0.15625 -0.09375,0.390625 -0.09375,0.4375 0,0.171875 0.140625,0.265625 0.296875,0.265625 0.125,0 0.296875,-0.078125 0.375,-0.28125 0,-0.015625 0.125,-0.484375 0.1875,-0.734375 l 0.21875,-0.890625 C 1.90625,-2.03125 1.96875,-2.25 2.03125,-2.46875 2.046875,-2.53125 2.125,-2.859375 2.140625,-2.921875 2.15625,-3.015625 2.46875,-3.5625 2.8125,-3.84375 3.03125,-4 3.34375,-4.1875 3.765625,-4.1875 c 0.4375,0 0.546875,0.34375 0.546875,0.703125 0,0.046875 0,0.21875 -0.109375,0.625 l -1.125,4.578125 c -0.03125,0.125 -0.03125,0.140625 -0.03125,0.171875 0,0.140625 0.109375,0.265625 0.265625,0.265625 0.3125,0 0.390625,-0.296875 0.421875,-0.40625 z m 0,0"
             id="path1057" />
        </symbol>
      </g>
    </defs>
    <g
       id="id-696c6477-a9a4-42e2-98a6-86599b6456f1"
       transform="translate(-149.009,-130.359)"
       style="stroke-linecap:butt;stroke-linejoin:round">
      <g
         style="fill:#000000;fill-opacity:1;stroke-linecap:butt;stroke-linejoin:round"
         id="id-a40436c8-a0da-46d2-8c8a-a4c46249cdba">
        <g
           transform="translate(148.712,134.765)"
           id="g1301"
           style="stroke-linecap:butt;stroke-linejoin:round">
          <path
             style="stroke:none;stroke-width:0;stroke-linecap:butt;stroke-linejoin:round"
             d="M 4.859375,-2.765625 C 4.921875,-2.9375 4.9375,-3.078125 4.9375,-3.34375 c 0,-0.640625 -0.390625,-1.0625 -1.140625,-1.0625 -0.78125,0 -1.296875,0.515625 -1.546875,0.875 -0.046875,-0.578125 -0.46875,-0.875 -0.921875,-0.875 -0.453125,0 -0.640625,0.390625 -0.734375,0.5625 C 0.421875,-3.5 0.296875,-2.90625 0.296875,-2.875 c 0,0.109375 0.09375,0.109375 0.109375,0.109375 0.109375,0 0.109375,-0.015625 0.171875,-0.234375 0.171875,-0.703125 0.375,-1.1875 0.734375,-1.1875 0.15625,0 0.296875,0.078125 0.296875,0.453125 0,0.21875 -0.03125,0.328125 -0.15625,0.84375 L 0.875,-0.59375 c -0.03125,0.15625 -0.09375,0.390625 -0.09375,0.4375 0,0.171875 0.140625,0.265625 0.296875,0.265625 0.125,0 0.296875,-0.078125 0.375,-0.28125 0,-0.015625 0.125,-0.484375 0.1875,-0.734375 l 0.21875,-0.890625 C 1.90625,-2.03125 1.96875,-2.25 2.03125,-2.46875 2.046875,-2.53125 2.125,-2.859375 2.140625,-2.921875 2.15625,-3.015625 2.46875,-3.5625 2.8125,-3.84375 3.03125,-4 3.34375,-4.1875 3.765625,-4.1875 c 0.4375,0 0.546875,0.34375 0.546875,0.703125 0,0.046875 0,0.21875 -0.109375,0.625 l -1.125,4.578125 c -0.03125,0.125 -0.03125,0.140625 -0.03125,0.171875 0,0.140625 0.109375,0.265625 0.265625,0.265625 0.3125,0 0.390625,-0.296875 0.421875,-0.40625 z m 0,0"
             id="id-e3cf68ff-2bd8-4b8d-a5f9-42ccc9d3a3af" />
        </g>
      </g>
    </g>
  </g>
</svg>
